<svg version="1.1" id="Layer_1" xmlns="http://www.w3.org/2000/svg" x="0px" y="0px"
	 viewBox="0 0 26.1 29.8" style="enable-background:new 0 0 26.1 29.8;">
<g>
	<g>
		<path d="M9.6,24.6l16.5-12.4L18.8,0L0,8.5L9.6,24.6z M18.1,2.5l5.5,9.2L10.2,21.8L2.7,9.4L18.1,2.5z"/>
	</g>
	<path class="st0" style="opacity:0.5" d="M20.8,5.7c0.7,0.9-0.5,3.9-1,4.7c-1.2,1.9-3.1,3-5,4c-2.7,1.5-5.9,3.5-5.9,6.9c0,0.2,0.6,2.7,0.8,2.5
		c0,0,15.5-12.1,15.5-12.1S20.5,3.7,20.8,5.7z"/>
	<path class="st0" d="M9.1,23.1c0,0.1-0.6,0.7-0.7,0.8c-0.5,0.6-0.9,1.3-1.2,2c-0.3,0.7-0.6,1.6-0.4,2.4c0.4,1.5,2.3,2.2,3,0.5
		C10.6,27,9.8,24.9,9.1,23.1z"/>
</g>
</svg>
