<svg version="1.1" id="Layer_1" xmlns="http://www.w3.org/2000/svg" x="0px" y="0px"
	 viewBox="0 0 28.9 29.1" style="enable-background:new 0 0 28.9 29.1;">
<g>
	<path d="M15.1,25.7c0-0.1,0-0.3-0.1-0.4c0,0,0,0,0-0.1c-0.1-0.1-0.1-0.2-0.2-0.3c0,0,0,0-0.1-0.1c0,0,0,0-0.1-0.1l-2.8-2.2
		c-0.5-0.4-1.2-0.3-1.6,0.2c-0.2,0.2-0.3,0.5-0.2,0.8c0,0.3,0.9,0.7,1.1,0.9c-4.9-0.7-8.8-3-8.8-4.9c0-0.6,0.3-1.1,0.8-1.7
		c0.2-0.2,0.3-0.5,0.3-0.8c0-0.3-0.1-0.6-0.4-0.8c-0.5-0.4-1.2-0.4-1.6,0c-0.9,1-1.4,2.1-1.4,3.3c0,3.5,4.9,6.3,11.2,7l-0.7,0.4
		c-0.5,0.4-0.6,1.1-0.2,1.6c0.2,0.3,0.5,0.4,0.9,0.4c0.3,0,0.5-0.1,0.7-0.2l2.8-2.2c0,0,0,0,0.1-0.1c0,0,0,0,0,0
		c0.1-0.1,0.2-0.2,0.2-0.3c0,0,0,0,0,0C15.1,26,15.1,25.9,15.1,25.7C15.1,25.7,15.1,25.7,15.1,25.7C15.1,25.7,15.1,25.7,15.1,25.7
		C15.1,25.7,15.1,25.7,15.1,25.7z"/>
	<path d="M27.5,16.3c-0.4-0.5-1.2-0.5-1.6,0c-0.5,0.4-0.5,1.2,0,1.6c0.5,0.6,0.8,1.1,0.8,1.7c0,2.2-3.9,4.3-9,4.8
		c-0.6,0.1-1.1,0.6-1,1.3c0.1,0.6,0.5,1,1.1,1c0,0,0.1,0,0.1,0c6.5-0.7,11-3.6,11-7.1C28.9,18.4,28.4,17.3,27.5,16.3z"/>
	<path d="M10.8,21.1h7.4c1.6,0,2.8-1.3,2.8-2.8V2.8C21,1.3,19.7,0,18.2,0h-7.4C9.2,0,7.9,1.3,7.9,2.8v15.4
		C7.9,19.8,9.2,21.1,10.8,21.1z M10.2,18.2V2.8c0-0.3,0.3-0.6,0.6-0.6h7.4c0.3,0,0.6,0.3,0.6,0.6v15.4c0,0.3-0.3,0.6-0.6,0.6h-7.4
		C10.4,18.8,10.2,18.6,10.2,18.2z"/>
</g>
<path d="M10.8,30.2"/>
</svg>
