<svg version="1.1" id="Layer_1" xmlns="http://www.w3.org/2000/svg" x="0px" y="0px"
	 viewBox="0 0 21.3 27.8" style="enable-background:new 0 0 21.3 27.8;">
<g>
	<path d="M15.9,4.1c-0.2-1-0.7-1.8-1.4-2.6c-1-1-2.3-1.6-3.8-1.6C9.2,0,7.9,0.5,6.9,1.6c-1,1-1.6,2.3-1.6,3.8v8.6
		c0,0.2,0,0.5,0.1,0.7L15.9,4.1z"/>
	<path d="M3.6,16.4c-0.3-0.8-0.4-1.6-0.4-2.5v-2.1c0-0.3-0.1-0.5-0.3-0.8c-0.2-0.2-0.5-0.3-0.8-0.3S1.6,10.8,1.4,11
		C1.1,11.2,1,11.5,1,11.8v2.1C1,15.4,1.3,16.8,2,18L3.6,16.4z"/>
	<path d="M19.2,10.7c-0.3,0-0.5,0.1-0.8,0.3c-0.2,0.2-0.3,0.5-0.3,0.8v2.1c0,2.1-0.7,3.8-2.2,5.3c-1.5,1.5-3.2,2.2-5.3,2.2
		c-1.7,0-3.2-0.5-4.5-1.5l1.5-1.5c0.9,0.6,1.8,0.9,2.9,0.9c1.5,0,2.7-0.5,3.8-1.6c1-1,1.6-2.3,1.6-3.8v-3.8l5.2-5.2l-1.6-1.6L0,23
		l1.6,1.6l3.1-3.1c1.4,1.1,3,1.8,4.9,2v2.2H5.3c-0.3,0-0.5,0.1-0.8,0.3c-0.2,0.2-0.3,0.5-0.3,0.8c0,0.3,0.1,0.5,0.3,0.8
		c0.2,0.2,0.5,0.3,0.8,0.3H16c0.3,0,0.5-0.1,0.8-0.3c0.2-0.2,0.3-0.5,0.3-0.8c0-0.3-0.1-0.5-0.3-0.8c-0.2-0.2-0.5-0.3-0.8-0.3h-4.3
		v-2.2c2.4-0.3,4.4-1.3,6.1-3.1s2.5-4,2.5-6.4v-2.1c0-0.3-0.1-0.5-0.3-0.8C19.8,10.8,19.5,10.7,19.2,10.7z"/>
</g>
</svg>
