<svg version="1.1" xmlns="http://www.w3.org/2000/svg" x="0px" y="0px"
	 viewBox="0 0 302.1 209.3" style="enable-background:new 0 0 302.1 209.3;">
<g id="font">
	<g>
		<g>
			<g>
				<g>
					<g>
						<path class="st0" style="fill:#FFFFFF;" d="M295.2,146.5c0,0-9.6,9.1-36.7,18.8c-36.8,13.1-43.3,9.7-43.3,9.7c-11.9,4.2-80-116.4-80-116.4
							s3.1-7.5,23.4-14.7l102-34.8c11.9-4.2,23.2-3.3,23.2-3.3S307.1,142.3,295.2,146.5z"/>
					</g>
					<g>
						<path class="st1" style="fill:#231F20;" d="M259.6,168.6c-29.6,10.5-40.6,10.7-44.5,10c-3.9,0.5-9-3-20.3-17.9c-7.2-9.6-16.3-23.2-27.1-40.5
							c-18.3-29.3-35.4-59.6-35.6-59.9l-0.8-1.5l0.7-1.6c0.4-0.9,4.3-9.2,25.5-16.7L259.5,5.7c12.5-4.4,24.1-3.5,24.6-3.4l2.7,0.2
							l0.5,2.7c0.1,0.3,5.9,34.6,10.2,68.9c2.5,20.2,4,36.5,4.5,48.5c0.7,19.4-1.3,25.1-4.8,26.9
							C294.7,151.6,284.1,159.9,259.6,168.6z M216.6,171.7c1.1,0.2,9.5,1.4,40.7-9.7c25.9-9.2,35.4-17.9,35.5-18l0.5-0.5l0.3-0.1
							c1-1.7,4.1-12-3.5-71.5c-3.5-27.4-7.8-54-9.3-62.6c-3.8,0-11.3,0.4-19,3.2L159.7,47.2c-13.1,4.7-18.5,9.3-20.4,11.5
							c3.9,6.8,17.7,30.9,32.6,55c31.6,50.9,40.5,57,42.4,57.7l1-0.4L216.6,171.7z"/>
					</g>
				</g>
				<g>
					<path class="st1" style="fill:#231F20;" d="M295.2,146.5c0,0-37.9,15.4-74.4,22.8c-4.6,0.9,58.3-22.9,58.3-22.9l-0.4-1.3c0,0-38.5,13.7-46.5,12.2
						c0,0,49.1-17.6,63-27.7C299.5,126.4,299.6,144.9,295.2,146.5z"/>
				</g>
				<polygon class="st2" style="fill:#FFCF30;" points="182.9,52.2 208.8,127.5 204.6,125.2 167.9,57.8 149.5,64.5 208.1,155.2 288,126.3 273.7,18.9
					"/>
				<g>
					<path class="st3" style="fill:#E0AE14;" d="M255.9,25.5c0,0,19.6,89.1,18,92c-5.4,10.1-70.3,30.7-70.3,30.7l4.5,6.9c0,0,16.1-0.9,44.6-11
						c26.6-9.4,35.8-16.6,35.8-16.6L273.7,18.9L255.9,25.5z"/>
				</g>
			</g>
			<g>
				<g>
					<g>
						<path class="st0" style="fill:#FFFFFF;" d="M94.1,205.2c0,0-13,2.7-41.1-3.6c-38.2-8.4-41.8-14.8-41.8-14.8c-12.4-2.7-6-141.1-6-141.1
							s6.6-4.7,27.6,0l105,24.6c12.4,2.7,21.4,9.5,21.4,9.5S106.4,208,94.1,205.2z"/>
					</g>
					<g>
						<path class="st1" style="fill:#231F20;" d="M52.2,205.1c-30.7-6.8-40.1-12.5-43-15.2c-3.5-1.6-6.1-7.3-7.7-25.9c-1-11.9-1.5-28.3-1.5-48.7
							C0,80.7,1.6,46,1.6,45.6l0.1-1.7l1.4-1c0.8-0.6,8.5-5.5,30.4-0.6l105,24.6c12.9,2.9,22.3,9.8,22.7,10.1l2.2,1.6l-1,2.5
							c-0.1,0.3-13.4,32.5-27.9,63.8c-8.6,18.5-16,33.1-21.9,43.5c-9.7,16.8-14.4,20.6-18.4,20.2C91,209.3,77.6,210.7,52.2,205.1z
							 M14.1,184.9c0.8,0.8,7.3,6.2,39.7,13.4c26.8,5.9,39.5,3.6,39.6,3.6l0.7-0.1l0.3,0.1c1.8-0.9,9.8-8,35-62.5
							c11.6-25,22-49.9,25.4-58c-3.3-2-9.8-5.6-17.8-7.4L32,49.2c-13.6-3-20.6-1.9-23.4-1C8.2,56,7.2,83.8,7.1,112.1
							c-0.2,60,4.1,69.8,5.3,71.4l1.1,0.2L14.1,184.9z"/>
					</g>
				</g>
				<g>
					<path class="st1" style="fill:#231F20;" d="M94.1,205.2c0,0-40.3-7-75.2-20.2c-4.4-1.7,61.6,11.5,61.6,11.5l0.3-1.3c0,0-39.9-8.8-45.9-14.4
						c0,0,50.9,11.1,68.1,9.9C108.4,190.5,98.7,206.2,94.1,205.2z"/>
				</g>
				<polygon class="st2" style="fill:#FFCF30;" points="49,65.8 31,143.3 28.6,139.1 33.3,62.5 14.2,58.4 15.7,166.4 98.7,184.3 143.6,85.7 				"/>
				<g>
					<path class="st3" style="fill:#E0AE14;" d="M125,81.9c0,0-30.7,85.9-33.5,87.5c-9.9,5.7-75.9-11.3-75.9-11.3l0.1,8.3c0,0,14.2,7.8,43.6,14.3
						c27.5,6.1,39.1,5,39.1,5l45.1-100L125,81.9z"/>
				</g>
			</g>
			<g>
				<path d="M116.7,47.2L83.8,31.9c-0.6-0.3-1.3-0.3-1.9-0.1c-0.6,0.2-1.1,0.7-1.4,1.3c-0.6,1.2,0,2.7,1.2,3.3l32.9,15.3
					c0.3,0.2,0.7,0.2,1,0.2c0.9,0,1.8-0.5,2.2-1.4c0.3-0.7,0.3-1.4,0-2.1C117.6,47.9,117.2,47.4,116.7,47.2z"/>
				<path d="M125.2,40.8c-0.1-0.1-0.1-0.3-0.2-0.4L101.2,7.3c-0.4-0.5-0.9-0.9-1.6-1c-0.6-0.1-1.3,0-1.8,0.4c-0.5,0.4-0.9,0.9-1,1.6
					c-0.1,0.6,0,1.3,0.4,1.8l23.7,33.2c0.4,0.5,0.9,0.9,1.6,1c0.1,0,0.3,0,0.4,0c0.5,0,1-0.2,1.4-0.5
					C125.3,43.2,125.7,41.9,125.2,40.8L125.2,40.8z"/>
				<path d="M133.2,2.3c0-0.7-0.3-1.3-0.8-1.7C132,0.2,131.3,0,130.7,0c-1.4,0.1-2.4,1.2-2.3,2.6l1.7,36.2c0,0.7,0.3,1.3,0.8,1.7
					c0.5,0.4,1,0.6,1.6,0.6c0,0,0.1,0,0.1,0c0.7,0,1.4-0.4,1.8-1v0c0.3-0.5,0.5-1,0.5-1.6L133.2,2.3z"/>
			</g>
			<g>
				<path d="M152.6,133.5c-0.4-0.6-1-1-1.7-1.1c-1.3-0.2-2.6,0.7-2.8,2.1l-5.1,35.9c-0.2,1.3,0.7,2.6,2.1,2.8c0.1,0,0.2,0,0.3,0
					c1.2,0,2.2-0.9,2.4-2.1l5.1-35.9C153,134.5,152.9,134,152.6,133.5L152.6,133.5z"/>
				<path d="M177.5,169.7l-14.8-38c-0.1-0.1-0.1-0.3-0.2-0.4c-0.6-1-1.9-1.4-3-1c-1.3,0.5-1.9,1.9-1.4,3.2l14.8,38
					c0.2,0.6,0.7,1.1,1.3,1.4c0.3,0.1,0.6,0.2,1,0.2c0.3,0,0.6-0.1,0.9-0.2c0.6-0.2,1.1-0.7,1.4-1.3
					C177.7,171,177.7,170.3,177.5,169.7z"/>
			</g>
		</g>
	</g>
</g>
</svg>
