<svg version="1.1" xmlns="http://www.w3.org/2000/svg" x="0px" y="0px"
	 viewBox="0 0 302.1 209.3" style="enable-background:new 0 0 302.1 209.3;">
<g id="font">
	<g>
		<g>
			<g>
				<path d="M116.7,47.2L83.8,31.9c-0.6-0.3-1.3-0.3-1.9-0.1c-0.6,0.2-1.1,0.7-1.4,1.3c-0.6,1.2,0,2.7,1.2,3.3l32.9,15.3
					c0.3,0.2,0.7,0.2,1,0.2c0.9,0,1.8-0.5,2.2-1.4c0.3-0.7,0.3-1.4,0-2.1C117.6,47.9,117.2,47.4,116.7,47.2z"/>
				<path d="M125.2,40.8c-0.1-0.1-0.1-0.3-0.2-0.4L101.2,7.3c-0.4-0.5-0.9-0.9-1.6-1c-0.6-0.1-1.3,0-1.8,0.4c-0.5,0.4-0.9,0.9-1,1.6
					c-0.1,0.6,0,1.3,0.4,1.8l23.7,33.2c0.4,0.5,0.9,0.9,1.6,1c0.1,0,0.3,0,0.4,0c0.5,0,1-0.2,1.4-0.5
					C125.3,43.2,125.7,41.9,125.2,40.8L125.2,40.8z"/>
				<path d="M133.2,2.3c0-0.7-0.3-1.3-0.8-1.7C132,0.2,131.3,0,130.7,0c-1.4,0.1-2.4,1.2-2.3,2.6l1.7,36.2c0,0.7,0.3,1.3,0.8,1.7
					c0.5,0.4,1,0.6,1.6,0.6c0,0,0.1,0,0.1,0c0.7,0,1.4-0.4,1.8-1v0c0.3-0.5,0.5-1,0.5-1.6L133.2,2.3z"/>
			</g>
			<g>
				<path d="M152.6,133.5c-0.4-0.6-1-1-1.7-1.1c-1.3-0.2-2.6,0.7-2.8,2.1l-5.1,35.9c-0.2,1.3,0.7,2.6,2.1,2.8c0.1,0,0.2,0,0.3,0
					c1.2,0,2.2-0.9,2.4-2.1l5.1-35.9C153,134.5,152.9,134,152.6,133.5L152.6,133.5z"/>
				<path d="M177.5,169.7l-14.8-38c-0.1-0.1-0.1-0.3-0.2-0.4c-0.6-1-1.9-1.4-3-1c-1.3,0.5-1.9,1.9-1.4,3.2l14.8,38
					c0.2,0.6,0.7,1.1,1.3,1.4c0.3,0.1,0.6,0.2,1,0.2c0.3,0,0.6-0.1,0.9-0.2c0.6-0.2,1.1-0.7,1.4-1.3
					C177.7,171,177.7,170.3,177.5,169.7z"/>
			</g>
		</g>
	</g>
</g>
</svg>
