<svg version="1.1" xmlns="http://www.w3.org/2000/svg" x="0px" y="0px"
	 viewBox="0 0 302.1 209.3" style="enable-background:new 0 0 302.1 209.3;">
<g id="font">
	<g>
		<g>
			<g>
				<g>
					<g>
						<path class="st0" style="fill:#FFFFFF;" d="M295.2,146.5c0,0-9.6,9.1-36.7,18.8c-36.8,13.1-43.3,9.7-43.3,9.7c-11.9,4.2-80-116.4-80-116.4
							s3.1-7.5,23.4-14.7l102-34.8c11.9-4.2,23.2-3.3,23.2-3.3S307.1,142.3,295.2,146.5z"/>
					</g>
					<g>
						<path class="st1" style="fill:#231F20;" d="M259.6,168.6c-29.6,10.5-40.6,10.7-44.5,10c-3.9,0.5-9-3-20.3-17.9c-7.2-9.6-16.3-23.2-27.1-40.5
							c-18.3-29.3-35.4-59.6-35.6-59.9l-0.8-1.5l0.7-1.6c0.4-0.9,4.3-9.2,25.5-16.7L259.5,5.7c12.5-4.4,24.1-3.5,24.6-3.4l2.7,0.2
							l0.5,2.7c0.1,0.3,5.9,34.6,10.2,68.9c2.5,20.2,4,36.5,4.5,48.5c0.7,19.4-1.3,25.1-4.8,26.9
							C294.7,151.6,284.1,159.9,259.6,168.6z M216.6,171.7c1.1,0.2,9.5,1.4,40.7-9.7c25.9-9.2,35.4-17.9,35.5-18l0.5-0.5l0.3-0.1
							c1-1.7,4.1-12-3.5-71.5c-3.5-27.4-7.8-54-9.3-62.6c-3.8,0-11.3,0.4-19,3.2L159.7,47.2c-13.1,4.7-18.5,9.3-20.4,11.5
							c3.9,6.8,17.7,30.9,32.6,55c31.6,50.9,40.5,57,42.4,57.7l1-0.4L216.6,171.7z"/>
					</g>
				</g>
				<g>
					<path class="st1" style="fill:#231F20;" d="M295.2,146.5c0,0-37.9,15.4-74.4,22.8c-4.6,0.9,58.3-22.9,58.3-22.9l-0.4-1.3c0,0-38.5,13.7-46.5,12.2
						c0,0,49.1-17.6,63-27.7C299.5,126.4,299.6,144.9,295.2,146.5z"/>
				</g>
				<polygon class="st2" style="fill:#FFCF30;" points="182.9,52.2 208.8,127.5 204.6,125.2 167.9,57.8 149.5,64.5 208.1,155.2 288,126.3 273.7,18.9
					"/>
				<g>
					<path class="st3" style="fill:#E0AE14;" d="M255.9,25.5c0,0,19.6,89.1,18,92c-5.4,10.1-70.3,30.7-70.3,30.7l4.5,6.9c0,0,16.1-0.9,44.6-11
						c26.6-9.4,35.8-16.6,35.8-16.6L273.7,18.9L255.9,25.5z"/>
				</g>
			</g>
		</g>
	</g>
</g>
</svg>
