<svg version="1.1" xmlns="http://www.w3.org/2000/svg" x="0px" y="0px"
	 viewBox="0 0 302.1 209.3" style="enable-background:new 0 0 302.1 209.3;">
<g id="font">
	<g>
		<g>
			<g>
				<g>
					<g>
						<path class="st0" style="fill:#FFFFFF;" d="M94.1,205.2c0,0-13,2.7-41.1-3.6c-38.2-8.4-41.8-14.8-41.8-14.8c-12.4-2.7-6-141.1-6-141.1
							s6.6-4.7,27.6,0l105,24.6c12.4,2.7,21.4,9.5,21.4,9.5S106.4,208,94.1,205.2z"/>
					</g>
					<g>
						<path class="st1" style="fill:#231F20;" d="M52.2,205.1c-30.7-6.8-40.1-12.5-43-15.2c-3.5-1.6-6.1-7.3-7.7-25.9c-1-11.9-1.5-28.3-1.5-48.7
							C0,80.7,1.6,46,1.6,45.6l0.1-1.7l1.4-1c0.8-0.6,8.5-5.5,30.4-0.6l105,24.6c12.9,2.9,22.3,9.8,22.7,10.1l2.2,1.6l-1,2.5
							c-0.1,0.3-13.4,32.5-27.9,63.8c-8.6,18.5-16,33.1-21.9,43.5c-9.7,16.8-14.4,20.6-18.4,20.2C91,209.3,77.6,210.7,52.2,205.1z
							 M14.1,184.9c0.8,0.8,7.3,6.2,39.7,13.4c26.8,5.9,39.5,3.6,39.6,3.6l0.7-0.1l0.3,0.1c1.8-0.9,9.8-8,35-62.5
							c11.6-25,22-49.9,25.4-58c-3.3-2-9.8-5.6-17.8-7.4L32,49.2c-13.6-3-20.6-1.9-23.4-1C8.2,56,7.2,83.8,7.1,112.1
							c-0.2,60,4.1,69.8,5.3,71.4l1.1,0.2L14.1,184.9z"/>
					</g>
				</g>
				<g>
					<path class="st1" style="fill:#231F20;" d="M94.1,205.2c0,0-40.3-7-75.2-20.2c-4.4-1.7,61.6,11.5,61.6,11.5l0.3-1.3c0,0-39.9-8.8-45.9-14.4
						c0,0,50.9,11.1,68.1,9.9C108.4,190.5,98.7,206.2,94.1,205.2z"/>
				</g>
				<polygon class="st2" style="fill:#FFCF30;" points="49,65.8 31,143.3 28.6,139.1 33.3,62.5 14.2,58.4 15.7,166.4 98.7,184.3 143.6,85.7 				"/>
				<g>
					<path class="st3" style="fill:#E0AE14;" d="M125,81.9c0,0-30.7,85.9-33.5,87.5c-9.9,5.7-75.9-11.3-75.9-11.3l0.1,8.3c0,0,14.2,7.8,43.6,14.3
						c27.5,6.1,39.1,5,39.1,5l45.1-100L125,81.9z"/>
				</g>
			</g>
		</g>
	</g>
</g>
</svg>
