<svg version="1.1" id="Layer_1" xmlns="http://www.w3.org/2000/svg" x="0px" y="0px"
	 viewBox="0 0 19.2 27.8" style="enable-background:new 0 0 19.2 27.8;">
<g>
	<g>
		<g>
			<path d="M9.6,2.3c0.9,0,1.6,0.3,2.2,0.9c0.6,0.6,0.9,1.3,0.9,2.2v8.6c0,0.9-0.3,1.6-0.9,2.2c-0.6,0.6-1.3,0.9-2.2,0.9
				c-0.9,0-1.6-0.3-2.2-0.9c-0.6-0.6-0.9-1.3-0.9-2.2V5.3c0-0.9,0.3-1.6,0.9-2.2C8.1,2.5,8.8,2.3,9.6,2.3 M9.6,0
				C8.2,0,6.9,0.5,5.8,1.6c-1,1-1.6,2.3-1.6,3.8v8.6c0,1.5,0.5,2.7,1.6,3.8c1,1,2.3,1.6,3.8,1.6c1.5,0,2.7-0.5,3.8-1.6
				c1-1,1.6-2.3,1.6-3.8V5.3c0-1.5-0.5-2.7-1.6-3.8C12.4,0.5,11.1,0,9.6,0L9.6,0z"/>
		</g>
		<path d="M18.9,11c-0.2-0.2-0.5-0.3-0.8-0.3c-0.3,0-0.5,0.1-0.8,0.3c-0.2,0.2-0.3,0.5-0.3,0.8v2.1c0,2.1-0.7,3.8-2.2,5.3
			c-1.5,1.5-3.2,2.2-5.3,2.2c-2.1,0-3.8-0.7-5.3-2.2c-1.5-1.5-2.2-3.2-2.2-5.3v-2.1c0-0.3-0.1-0.5-0.3-0.8c-0.2-0.2-0.5-0.3-0.8-0.3
			S0.5,10.8,0.3,11C0.1,11.2,0,11.5,0,11.8v2.1c0,2.5,0.8,4.6,2.5,6.4c1.6,1.8,3.7,2.9,6.1,3.1v2.2H4.3c-0.3,0-0.5,0.1-0.8,0.3
			c-0.2,0.2-0.3,0.5-0.3,0.8c0,0.3,0.1,0.5,0.3,0.8c0.2,0.2,0.5,0.3,0.8,0.3H15c0.3,0,0.5-0.1,0.8-0.3c0.2-0.2,0.3-0.5,0.3-0.8
			c0-0.3-0.1-0.5-0.3-0.8c-0.2-0.2-0.5-0.3-0.8-0.3h-4.3v-2.2c2.4-0.3,4.4-1.3,6.1-3.1c1.6-1.8,2.5-4,2.5-6.4v-2.1
			C19.2,11.5,19.1,11.2,18.9,11z"/>
	</g>
</g>
</svg>
